<?xml version="1.0" encoding="UTF-8"?>
<svg id="Layer_1" data-name="Layer 1" xmlns="http://www.w3.org/2000/svg" viewBox="0 0 1555.52 1364.04">
  <path d="M811.01,1286.71c-.61-.21-1.42.05-2-.21-28.84-12.73-49.78-36.72-53.27-69.7l49.65-2.27c2.13,9.81,7.13,17.74,14.91,24.07,10.88,9.7,25.09,13.28,39.7,13.67,22.66.61,49.68-7.32,49.61-34.49-.05-21.96-19.66-29.02-38.68-33.28l-39.95-8.95c-15.44-3.46-29.58-9.27-42.02-18.62-14.04-10.55-22.03-24.69-24.35-42.06-2.52-18.88,1.57-36.24,11.32-52.01.36-.03.93-.69,1.03-1.02,1.42-.27,2.2-1.64,2.17-3.03,1.17-.18,1.4-1.55,2.08-2.23,10.44-10.38,22.19-19.12,37.07-23.66,45.03-13.76,109.97-7.79,132.03,41.68,3.66,8.21,5,16.34,6.61,25.4l-48.91,2.03c-6.86-35.14-50.64-40.23-76.46-27.67-10.35,5.03-16.7,15.02-16.71,25.95-.01,11.11,6.87,21.41,17.45,25.98,7.72,3.33,15.44,5.62,23.7,7.37l39.63,8.42c14.73,3.13,28.46,8.68,40.66,17.28,12.21,8.61,20.18,20.39,23.26,35.12,4.25,20.32,1.7,41.76-8.97,59.81-26.06,44.09-96.97,47.27-139.55,32.41Z" style="fill: #ffffff;"/>
  <path d="M201.01,1114.52c-.26-.02-.78-.03-1,.1-3.41-.88-6.55-.01-10.28,1.01-1.92.53-4.2-1.41-5.67.06l-.89-.04c-.62-2.07-.33-5.94-2.97-6.07-.03-.21.05-.45,0-.66-1.73-7.09-5.9-13.89-11.18-18.93-.33-.31-.7-.72-.94-1.1-1.29-2.04-2.96-3.94-5.09-5.11-.21-.34-.59-.61-.87-.9-4.06-4.09-9.4-6.73-15.38-8.91-23.61-8.6-53-3.26-70.63,15.89-13.82,15.02-20.34,34.19-22.58,54.4-1.02,9.16-.63,18.18-.21,27.49.17,3.72,1.18,7.48,1.66,11.27,5.21,41.91,37.26,73.54,80.04,66.67,25.51-4.1,41.4-21.4,48.14-44.82l.91-1.04,23.45,1.49,27.41,1.26c-8.22,39.92-33.48,71.75-74.45,83.13-27.62,7.67-56.82,6.64-84.02-3.09-18.87-6.75-34.43-18.91-46.82-34.48-28.71-36.09-35.57-88.38-24.79-132.35,3.04-12.39,7.15-24.25,13.25-34.96,8.6-15.09,20.56-27.17,33.78-38.2,13.84-8.02,28-15.05,44.4-17.71,22.92-3.73,45.27-3.2,67.54,2.78,35.89,9.64,65.6,42.75,68.64,78.68l-23.51,3.05c-2.72.35-5.88-1.04-7.92,1.08Z" style="fill: #ffffff;"/>
  <path d="M486.88,1124.92c2.53-2.49,5.85-4.24,7.17-7.02l8.92-7.16c1.15-.23,2.08-1.13,3.03-1.75,30.37-19.95,76.23-19.97,107.26-1.56,44.12,26.16,54.42,83.81,37.35,129.79-13.83,37.25-50.29,58.49-89.47,56.83-32.38,1.69-65.74-14.1-82.55-41.93-22.98-38.02-19.82-93.22,8.29-127.19ZM555.03,1254.33c22.21,2.52,40.61-9.52,47.92-30.01,7.66-21.46,6.67-45.24-3.07-66.07-7.1-15.19-21.34-23.6-37.95-24.14-16.76-.54-32.27,7.32-40.02,22.91-10.76,21.63-11.57,47.75-2.34,69.92,6.33,15.2,19.14,25.54,35.45,27.39Z" style="fill: #ffffff;"/>
  <path d="M1118.19,1097.58c1.59.23,3.27.24,4.91.23l31.08-.22c2.23-.02,4.45-.11,6.67.08.75.06,1.55.04,2.31.01.52-.02,1.6-.02,1.76.62.08.31-.3,1.02-.57,1.78l-53.3,150.62c-.23.66-.22,1.42-.36,2.1l-18.99,50.55c-8.83,23.49-17.75,38.31-37.7,52.56-.73.07-1.37.54-2.02.82-12,5.16-24.42,7.98-37.97,7.16-7.12-.43-14.02.58-20.92-2.16l-.02-40.84c13.39,1.16,31.19,3.33,40.14-9.12,4.64-6.46,10.72-15.85,9.9-24.28l-25.94-69.69-24.13-64.92c-2.96-7.96-6.24-15.07-8.72-23.18-1.94-6.35-4.06-12.58-7.04-17.97.03-.28.01-.65-.07-.92-.41-1.42-.75-2.95-1.85-4,.53-3.02-1.35-5.56-2.51-9.22l20.95-.02c2.83,0,5.53.13,8.38.08l14.77-.25,7.01.03c1.69,1.32,2.18,1.9,3.04,4.61l43.75,136.15c5.1-13.52,7.92-26.22,12.05-39.63l31.29-101.56,4.09.59Z" style="fill: #ffffff;"/>
  <path d="M1298.26,1151.8l-.09-1c-.53-1.18-1.29-2.21-2.24-3.07-.27-.24-.69-.62-.83-.94-5.64-12.39-35.95-18.16-52.19-2.99-.84.78-1.93,2.49-2.88,2.97-1.64.82-1.9,3.19-3.07,4.1-2.12,1.66-2.01,3.79-3.19,5.85-3.06,5.36-5.39,11.58-5.42,18.71l-.53,114.55c-15.94-.31-32.03.7-47.68-.02.02-.38-.26-.77-.26-1.15l-.77-171.17c0-2.05.65-3.67-.04-5.78-.81-2.47.53-5.56-.01-8.1,1.13-1.7-.14-4.37,1.77-6.16l45.27.09,1.53,26.12c16.9-28.53,52.77-36.03,82.43-26.19s41.14,35.52,41.56,64.31l-.19,128.19h-47.63s.22-109.14.22-109.14c-1.24-10.21-.03-21.23-5.77-29.17Z" style="fill: #ffffff;"/>
  <path d="M1426.01,1286.62c-.33.03-.71.01-1-.1-9.85-5.36-18.7-12.1-26.98-19.65-.3-.27-.64-.76-.88-1.07l-11.3-14.93c-4.47-5.91-6.57-13.83-8.77-21.54-6.66-23.44-6.67-48.03.77-71.26,17.78-55.51,74.82-76.05,127.39-57.76,27.76,10.99,44.68,32.65,49.67,62.12l-47.76,2.56c-2.42-7.68-5.83-13.89-10.68-19.75-17.38-17.18-50.33-15.1-63.64,8.55s-13.68,50.05-3.76,73.93c4.13,9.95,10.83,18.57,20.59,23.22,11.17,5.32,24.7,5.07,35.92.27s17.64-15.35,20.44-27.42c7.61-.66,14.96.31,22.39.43l27.11.47c-3.91,27.35-20.85,50.85-46.29,61.55-24.22,10.19-51.38,10.74-76.26,3.03-2.79-.86-4.46-2.91-6.97-2.66Z" style="fill: #ffffff;"/>
  <path d="M682.94,1289.76c0-.25-.03-.51-.03-.77l-.28-31.17c-.09-9.97.63-18.92-.16-29.18l.1-209.1,48.46.05-.02,270.43-48.07-.26Z" style="fill: #ffffff;"/>
  <path d="M1143.01,141.84c1.6,1.69,2.9,4.33,5.18,5.27,26.7,31.01,50.28,64.17,67.81,101.71.65,1.39.99,2.15,2.24,1.68.23-.09.56.08.81.04-.63,1.64-.51,3.16.35,5.12,7.07,16.2,13.48,32.16,18.96,49.03,4.21,12.95,6.97,25.44,10.15,38.68,5.18,21.61,8.08,43.15,8.79,65.45.15,4.61.97,8.37.2,13.03-2.23,13.63-13.51,22.76-27.59,22.54-13.34-.21-24.4-9.76-25.26-23.61-.72-11.55-2.14-22.42-3.62-33.99-13.61-106.76-71.82-201.79-160.35-262.75-15.98-11-32.28-21.54-49.76-29.35-.58-.26-1.04-.91-1.73-.97,0-1.03-1.52-.78-2.21-1-.53-.44-1.35-.47-1.94-.77-45.33-23.06-96.58-35.34-147.77-38.27-8.58-.49-15.96.48-23.3-2.95-.22-.49-1.32-1.03-1.84-.96-.69-1.71-2.56-2.34-4.14-3.05-.08-1.71-2.33-1.93-3.02-3-5.72-8.86-7.96-19.25-2.84-29.12,4.27-8.22,13.17-14.84,24.21-14.62,121.92,2.44,233.33,53.96,316.69,141.83Z" style="fill: #ffffff;"/>
  <path d="M708.06,358.89c.34.27.78.66,1.02,1.02,6.81,10,5.19,23.65-6.01,30.21l-50.38,29.53c-47.98,28.12-84.94,70.03-106.14,121.47-5.01,12.15-9.24,23.62-11.26,36.67-.74,4.82-4.65,9.22-8.36,10.71-4.84,1.94-9.74,1.41-14.26-1.41-9.07-5.67-11.72-17.33-7.62-27.23l14.67-29.12,26.96-51.27-97.74,55.3-11.26,59.65-7.14,38.77c-2.6,11.96-13.93,19.45-25.57,16.59s-17.61-14.01-15.36-26.13l11.51-61.82-64.8,35.35c-10.49,5.72-23.38-2.19-27.77-11.36-4.88-10.19-2.84-23.29,7.45-29.11l61.28-34.65-60.85-21.4c-11.33-3.98-16.56-17.46-12.02-27.61,4.92-10.99,16.13-15.6,27.83-11.52l93.39,32.61c4.92-3.32,9.91-4.72,13.37-8.46.58.21,1.5-.52,1.98-.78l126.19-70.52c-11.4.23-22.79,1.23-34.58,2.06l-62.56,4.4c-12.71.89-24.75,2.06-37.1,2.28-7.46.14-13.65-5.32-16.6-10.55-3.88-6.87-3.39-14.53.28-20.99,3.54-5.41,8.87-8.2,15.39-9.25l82.08-6.28-93.65-55.85-92.71,33.28c-8.39,3.01-17.26-2.31-21.69-8.11-5.33-6.98-4.65-14.95-2.15-22.79,4.1-4.8,8.21-8.43,14.55-10.69l56.26-20.05-55.33-33.12c-8.38-5.02-12.18-13.19-11.5-23.03.52-7.58,4.63-13.98,10.4-17.41,6.32-3.75,14.24-5.52,20.74-1.64l60.5,36.08-10.03-66.32c-1.74-11.48,7.93-20.29,18.22-21.56,11.05-1.36,21.13,5.96,23.06,17.49l16.69,99.45,102.52,61.83c11.92,7.19,22.39,14.33,34.87,21.02-.59-5.73,1.49-13.07-.52-18.29l-36.98-40.95c-13.04-14.44-24.96-29.04-38.32-42.46,0-.4-.69-1.05-1.06-1.21-5.24-7.58-6.46-17.91-1.28-26.16,4.03-6.42,11.44-9.71,18.43-9.37s13.26,4.02,17.54,10.11l42.31,47.63-.08-82.97-79.32-72.58c-9.14-8.36-8.36-22.51-.81-30.27,8.56-8.8,21.69-9.15,30.93-.95l49.13,43.59.65-69.66c.11-12.16,12.09-20.45,23.09-20.49s22.5,9.08,22.62,21.27l.68,68.81,47.86-44.1c9.75-8.98,23.31-8.75,31.83,2.02,7.22,9.44,5.92,23.35-3.54,31.35l-76.5,71.07.11,82.78,45.78-50.49c5.2-5.34,11.62-8.12,19-7.48,5.88.51,12.36,4.09,15.73,9.95,5.46,9.49,2.47,19.76-4.6,27.56l-53.68,59.23-22.19,24.04.05,41.33,51.78-31.37c8.41-5.1,17.42-3.44,24.58,2.33Z" style="fill: #ffffff;"/>
  <path d="M698.09,486.86c.35.37.67.77,1.06,1.1,10.54,15.58,6.29,34.17-8.69,45.5s-25.21,26.24-34.67,41.88c-10.79,17.84-15.49,37.97-18.98,58.37,1.03,4.66-.58,8.59-.49,13.01.45,21.46,4.63,42.28,13.51,61.08-.03.31-.03.7.05,1,.49,1.93,1.08,4.14,2.95,5.08-.02.26-.08.7.03.92,3.03,5.52,5.66,11.52,9.98,16.09l1.27,2.01c2.89,4.58,6.12,9.09,9.96,12.93.81,1.79,2.31,2.92,3.89,3.96,1.81,2.81,4.63,4.84,7.06,7.06l2.13,1.95c1.34,1.65,3.7,4.24,5.87,5.14.36.15.7.56.99.83,10.27,9.7,23.51,14.91,36.06,20.25,15.25,6.49,31.99,10.8,49.03,10.85h2.9c54.3.16,103.55-27.3,130.56-75.45,11.17-19.92,17.47-41.97,18.65-65.1,1.9-37.06-11.14-77.76-36.34-104.59l-.81-.86c-5.08-5.41-9.5-12.41-16.25-16.74-14.29-9.17-19.66-26.89-10.84-41.72,8.27-13.89,26.67-18.98,41.66-9.71,11.67,7.22,21.1,17.54,30.33,28.16,50.13,57.68,65.29,138.75,38.57,210.57-11.32,30.43-29.8,57.37-53.41,79.42-80.21,74.91-200.48,74.43-279.88.16-63.07-58.99-84.14-149.57-51.8-229.89,9.59-23.83,23.36-44.73,39.43-64.35.31-.37.68-.79,1.05-1.1,5.36-4.53,10.3-9.73,14.96-14.98.31-.35.8-.73,1.2-.98,5.85-3.68,11.17-8.43,18.36-10.6,11.18-3.38,23.08.6,30.64,8.76Z" style="fill: #ffffff;"/>
  <path d="M812.91,127.68c.3,0,.66-.11.94-.21,5.25-1.83,10.88-2.97,16.74-2.43l16.47,1.53c76.71,7.14,146.47,42.06,199.48,97.71,29.31,30.77,52.38,66.05,66.79,106.07,10.25,28.48,17.4,57.14,18.44,87.3.51,14.74-10.57,25.98-24.71,26.76-13.92.76-27.01-8.22-28.14-22.77-4.72-60.61-29.88-118.04-71.95-161.65-48.63-50.41-113.84-80.25-183.93-81.85-4.09-.09-8.8-2.72-11.77-4.48-8.78-5.22-12.13-14.36-11.82-24.17.29-8.87,5.92-16.37,13.45-21.82Z" style="fill: #ffffff;"/>
  <path d="M805.84,617.23c-9.99,8.67-23.56,10.21-35.93,4.53-9.18-4.22-19.09-15.23-19.14-28.01l-.68-200.83c-.07-21.62,15.88-39.47,38.04-37.12,16.97,1.8,29.85,16.68,29.83,34.05l-.18,199.85c0,10.63-3.76,20.43-11.94,27.53Z" style="fill: #ffffff;"/>
  <path d="M438.24,1148.91c5.92,17.04,8.18,33.65,7.86,50.89-.8,42.94-26.36,81.22-68.97,91.34-14.33,3.4-28.31,4.21-42.9,2.53-34.83-4.02-64.2-26.08-76-59.38-10.15-28.64-9.28-60.18,3.27-87.79,5.4-11.89,13.31-21.06,22.6-29.64,22.8-21.06,56.79-26.41,86.63-20.96s54.35,25.44,67.52,53.01ZM373.44,1247.73c27.12-17.89,28.29-62.5,15.23-89.28-7.39-15.15-20.88-23.32-37.06-24.29-18.11-1.09-34.22,7.67-42.21,24.51-9.53,20.1-10.69,43.52-3.13,64.7,3.89,10.9,10.9,20.45,21.21,26.04,14.01,7.6,32.26,7.36,45.96-1.68Z" style="fill: #ffffff;"/>
  <path d="M994.99,369.81c4.94,13.66,7.54,27.06,10.35,40.99,3.2,15.86-5.86,30.78-21.63,33.52-14.92,2.58-29.86-7.5-31.63-23.63-1.65-15.16-6.33-28.44-13.29-41.87-12.47-24.09-30.26-43.31-53.84-56.82-18.18-10.41-37.61-17.31-58.72-18.29-7.26-.34-12.47-3.52-18.14-6.92-7.87-9.01-11.35-20.41-6.29-31.46,4.3-9.39,14.52-16.46,26.32-15.68,71.57,4.74,136.17,51.15,164.47,116.71.91,2.1,1.21,2.3,2.41,3.45Z" style="fill: #ffffff;"/>
</svg>