<?xml version="1.0" encoding="UTF-8"?>
<svg id="Layer_1" data-name="Layer 1" xmlns="http://www.w3.org/2000/svg" viewBox="0 0 955.8 855.87">
  <path d="M841,141.84c1.6,1.69,2.9,4.33,5.18,5.27,26.7,31.01,50.28,64.17,67.81,101.71.65,1.39.99,2.15,2.24,1.68.23-.09.56.08.81.04-.63,1.64-.51,3.16.35,5.12,7.07,16.2,13.48,32.16,18.96,49.03,4.21,12.95,6.97,25.44,10.15,38.68,5.18,21.61,8.08,43.15,8.79,65.45.15,4.61.97,8.37.2,13.03-2.23,13.63-13.51,22.76-27.59,22.54-13.34-.21-24.4-9.76-25.26-23.61-.72-11.55-2.14-22.42-3.62-33.99-13.61-106.76-71.82-201.79-160.35-262.75-15.98-11-32.28-21.54-49.76-29.35-.58-.26-1.04-.91-1.73-.97,0-1.03-1.52-.78-2.21-1-.53-.44-1.35-.47-1.94-.77-45.33-23.06-96.58-35.34-147.77-38.27-8.58-.49-15.96.48-23.3-2.95-.22-.49-1.32-1.03-1.84-.96-.69-1.71-2.56-2.34-4.14-3.05-.08-1.71-2.33-1.93-3.02-3-5.72-8.86-7.96-19.25-2.84-29.12C504.36,6.4,513.26-.22,524.3,0c121.92,2.44,233.33,53.96,316.69,141.83Z" style="fill: #689cc1;"/>
  <path d="M406.05,358.89c.34.27.78.66,1.02,1.02,6.81,10,5.19,23.65-6.01,30.21l-50.38,29.53c-47.98,28.12-84.94,70.03-106.14,121.47-5.01,12.15-9.24,23.62-11.26,36.67-.74,4.82-4.65,9.22-8.36,10.71-4.84,1.94-9.74,1.41-14.26-1.41-9.07-5.67-11.72-17.33-7.62-27.23l14.67-29.12,26.96-51.27-97.74,55.3-11.26,59.65-7.14,38.77c-2.6,11.96-13.93,19.45-25.57,16.59s-17.61-14.01-15.36-26.13l11.51-61.82-64.8,35.35c-10.49,5.72-23.38-2.19-27.77-11.36-4.88-10.19-2.84-23.29,7.45-29.11l61.28-34.65-60.85-21.4c-11.33-3.98-16.56-17.46-12.02-27.61,4.92-10.99,16.13-15.6,27.83-11.52l93.39,32.61c4.92-3.32,9.91-4.72,13.37-8.46.58.21,1.5-.52,1.98-.78l126.19-70.52c-11.4.23-22.79,1.23-34.58,2.06l-62.56,4.4c-12.71.89-24.75,2.06-37.1,2.28-7.46.14-13.65-5.32-16.6-10.55-3.88-6.87-3.39-14.53.28-20.99,3.54-5.41,8.87-8.2,15.39-9.25l82.08-6.28-93.65-55.85-92.71,33.28c-8.39,3.01-17.26-2.31-21.69-8.11-5.33-6.98-4.65-14.95-2.15-22.79,4.1-4.8,8.21-8.43,14.55-10.69l56.26-20.05-55.33-33.12c-8.38-5.02-12.18-13.19-11.5-23.03.52-7.58,4.63-13.98,10.4-17.41,6.32-3.75,14.24-5.52,20.74-1.64l60.5,36.08-10.03-66.32c-1.74-11.48,7.93-20.29,18.22-21.56,11.05-1.36,21.13,5.96,23.06,17.49l16.69,99.45,102.52,61.83c11.92,7.19,22.39,14.33,34.87,21.02-.59-5.73,1.49-13.07-.52-18.29l-36.98-40.95c-13.04-14.44-24.96-29.04-38.32-42.46,0-.4-.69-1.05-1.06-1.21-5.24-7.58-6.46-17.91-1.28-26.16,4.03-6.42,11.44-9.71,18.43-9.37s13.26,4.02,17.54,10.11l42.31,47.63-.08-82.97-79.32-72.58c-9.14-8.36-8.36-22.51-.81-30.27,8.56-8.8,21.69-9.15,30.93-.95l49.13,43.59.65-69.66c.11-12.16,12.09-20.45,23.09-20.49s22.5,9.08,22.62,21.27l.68,68.81,47.86-44.1c9.75-8.98,23.31-8.75,31.83,2.02,7.22,9.44,5.92,23.35-3.54,31.35l-76.5,71.07.11,82.78,45.78-50.49c5.2-5.34,11.62-8.12,19-7.48,5.88.51,12.36,4.09,15.73,9.95,5.46,9.49,2.47,19.76-4.6,27.56l-53.68,59.23-22.19,24.04.05,41.33,51.78-31.37c8.41-5.1,17.42-3.44,24.58,2.33Z" style="fill: #689cc1;"/>
  <path d="M396.07,486.86c.35.37.67.77,1.06,1.1,10.54,15.58,6.29,34.17-8.69,45.5s-25.21,26.24-34.67,41.88c-10.79,17.84-15.49,37.97-18.98,58.37,1.03,4.66-.58,8.59-.49,13.01.45,21.46,4.63,42.28,13.51,61.08-.03.31-.03.7.05,1,.49,1.93,1.08,4.14,2.95,5.08-.02.26-.08.7.03.92,3.03,5.52,5.66,11.52,9.98,16.09l1.27,2.01c2.89,4.58,6.12,9.09,9.96,12.93.81,1.79,2.31,2.92,3.89,3.96,1.81,2.81,4.63,4.84,7.06,7.06l2.13,1.95c1.34,1.65,3.7,4.24,5.87,5.14.36.15.7.56.99.83,10.27,9.7,23.51,14.91,36.06,20.25,15.25,6.49,31.99,10.8,49.03,10.85h2.9c54.3.16,103.55-27.3,130.56-75.45,11.17-19.92,17.47-41.97,18.65-65.1,1.9-37.06-11.14-77.76-36.34-104.59l-.81-.86c-5.08-5.41-9.5-12.41-16.25-16.74-14.29-9.17-19.66-26.89-10.84-41.72,8.27-13.89,26.67-18.98,41.66-9.71,11.67,7.22,21.1,17.54,30.33,28.16,50.13,57.68,65.29,138.75,38.57,210.57-11.32,30.43-29.8,57.37-53.41,79.42-80.21,74.91-200.48,74.43-279.88.16-63.07-58.99-84.14-149.57-51.8-229.89,9.59-23.83,23.36-44.73,39.43-64.35.31-.37.68-.79,1.05-1.1,5.36-4.53,10.3-9.73,14.96-14.98.31-.35.8-.73,1.2-.98,5.85-3.68,11.17-8.43,18.36-10.6,11.18-3.38,23.08.6,30.64,8.76Z" style="fill: #689cc1;"/>
  <path d="M510.89,127.68c.3,0,.66-.11.94-.21,5.25-1.83,10.88-2.97,16.74-2.43l16.47,1.53c76.71,7.14,146.47,42.06,199.48,97.71,29.31,30.77,52.38,66.05,66.79,106.07,10.25,28.48,17.4,57.14,18.44,87.3.51,14.74-10.57,25.98-24.71,26.76-13.92.76-27.01-8.22-28.14-22.77-4.72-60.61-29.88-118.04-71.95-161.65-48.63-50.41-113.84-80.25-183.93-81.85-4.09-.09-8.8-2.72-11.77-4.48-8.78-5.22-12.13-14.36-11.82-24.17.29-8.87,5.92-16.37,13.45-21.82Z" style="fill: #689cc1;"/>
  <path d="M503.83,617.23c-9.99,8.67-23.56,10.21-35.93,4.53-9.18-4.22-19.09-15.23-19.14-28.01l-.68-200.83c-.07-21.62,15.88-39.47,38.04-37.12,16.97,1.8,29.85,16.68,29.83,34.05l-.18,199.85c0,10.63-3.76,20.43-11.94,27.53Z" style="fill: #689cc1;"/>
  <path d="M692.97,369.81c4.94,13.66,7.54,27.06,10.35,40.99,3.2,15.86-5.86,30.78-21.63,33.52-14.92,2.58-29.86-7.5-31.63-23.63-1.65-15.16-6.33-28.44-13.29-41.87-12.47-24.09-30.26-43.31-53.84-56.82-18.18-10.41-37.61-17.31-58.72-18.29-7.26-.34-12.47-3.52-18.14-6.92-7.87-9.01-11.35-20.41-6.29-31.46,4.3-9.39,14.52-16.46,26.32-15.68,71.57,4.74,136.17,51.15,164.47,116.71.91,2.1,1.21,2.3,2.41,3.45Z" style="fill: #689cc1;"/>
</svg>