<svg version="1.1" id="Layer_1" xmlns="http://www.w3.org/2000/svg" xmlns:xlink="http://www.w3.org/1999/xlink" x="0px" y="0px"
	 width="100%" viewBox="0 0 1024 880" enable-background="new 0 0 1024 880" xml:space="preserve">
<path fill="#ffffff" opacity="1.000000" stroke="none" 
	d="
M452.135742,149.134674 
	C467.510040,134.082031 482.615509,119.260101 497.759583,104.477791 
	C512.964844,89.635727 529.070557,89.378998 544.280151,104.353935 
	C583.226562,142.699448 621.953186,181.268005 660.786804,219.728149 
	C677.480286,236.261124 694.228516,252.738876 710.925232,269.268646 
	C712.194458,270.525146 713.905518,271.478851 714.441101,274.142242 
	C710.130127,274.142242 705.920715,274.444519 701.767578,274.089142 
	C685.104370,272.663361 668.935974,268.912170 653.157593,263.378967 
	C647.054199,261.238647 641.934204,257.828979 637.340576,253.251587 
	C600.630371,216.670670 563.822021,180.188202 527.037659,143.681732 
	C525.393494,142.049973 523.690918,140.477127 521.351868,138.242874 
	C442.299408,215.307343 363.420197,292.202972 284.584961,369.055695 
	C286.751923,372.806366 289.577423,374.939941 292.045868,377.361603 
	C366.386963,450.295135 440.755157,523.201050 515.118652,596.111694 
	C520.704407,601.588318 520.664612,601.549988 526.364746,596.099731 
	C575.739807,548.888367 625.214050,501.784393 675.442261,455.474670 
	C712.190735,421.593048 748.680786,387.430359 785.149719,353.247528 
	C788.608398,350.005707 790.874207,349.904388 794.249695,353.134277 
	C805.515015,363.913818 805.005920,381.868988 792.783203,393.695007 
	C771.468079,414.318237 750.088623,434.875031 728.768799,455.493408 
	C689.961914,493.023499 651.210449,530.610901 612.374268,568.110596 
	C588.643188,591.025085 564.835144,613.860352 540.986938,636.652954 
	C528.849060,648.253601 510.662720,648.317993 499.053314,637.028687 
	C429.167847,569.070312 359.276703,501.117767 289.387329,433.163391 
	C275.409454,419.572540 261.414001,405.999725 247.457733,392.386719 
	C234.348221,379.599579 234.178726,361.765289 247.204590,349.043610 
	C306.808228,290.831909 366.459747,232.669327 426.096863,174.491959 
	C434.684753,166.114243 443.287811,157.752106 452.135742,149.134674 
z"/>
<path fill="#ffffff" opacity="1.000000" stroke="none" 
	d="
M574.318481,411.853729 
	C555.575012,405.795532 537.394958,399.197601 518.804382,394.095428 
	C472.227936,381.312561 426.860535,385.249451 383.000061,405.698700 
	C381.314026,406.484802 379.728607,408.063934 377.453369,407.313599 
	C377.330444,404.917084 379.175201,403.710602 380.383820,402.286499 
	C411.234741,365.933197 450.096313,343.428284 497.230957,335.992462 
	C526.921204,331.308624 555.927917,335.593536 584.282776,345.061829 
	C609.375244,353.440796 634.501343,361.746674 660.678589,366.169830 
	C696.834473,372.279083 731.602661,368.066101 764.683350,351.783112 
	C765.668213,351.298309 766.543030,350.257172 767.887390,350.988922 
	C768.828369,352.551544 767.421082,353.449951 766.758240,354.449066 
	C745.616089,386.317230 715.666870,405.812622 679.369995,416.145477 
	C647.408203,425.244232 615.539795,423.494049 583.837830,414.522827 
	C580.795410,413.661804 577.742920,412.836670 574.318481,411.853729 
z"/>
<path fill="#ffffff" opacity="1.000000" stroke="none" 
	d="
M488.399658,294.362061 
	C512.132507,278.428986 537.580383,267.755524 565.692505,264.127380 
	C588.087524,261.237061 610.275940,262.921722 631.973877,269.101105 
	C655.015747,275.663177 677.721191,283.468201 701.500977,287.171967 
	C736.908997,292.686829 771.192932,289.788086 803.638672,273.395142 
	C811.397217,269.475189 818.429993,264.401672 825.449280,259.315277 
	C826.733582,258.384674 827.674377,256.781738 829.940857,256.856323 
	C829.658020,261.144714 827.756897,264.901733 825.939819,268.444885 
	C804.145081,310.942200 770.709351,337.741455 722.554504,344.389496 
	C694.424255,348.273041 667.250549,342.965973 640.228455,335.844635 
	C621.043030,330.788544 602.641113,323.322052 583.581543,317.903168 
	C537.433899,304.782745 493.039825,308.089111 450.831116,332.010010 
	C450.400513,332.254028 449.948822,332.501160 449.475372,332.613525 
	C449.208954,332.676758 448.877625,332.466461 447.613525,332.102051 
	C459.467438,317.373505 472.865997,305.010315 488.399658,294.362061 
z"/>
</svg>