<svg version="1.1" id="Layer_1" xmlns="http://www.w3.org/2000/svg" xmlns:xlink="http://www.w3.org/1999/xlink" x="0px" y="0px"
	 width="100%" viewBox="0 0 1024 880" enable-background="new 0 0 1024 880" xml:space="preserve">
<path fill="#ffffff" opacity="1.000000" stroke="none" 
	d="
M452.135742,149.134674 
	C467.510040,134.082031 482.615509,119.260101 497.759583,104.477791 
	C512.964844,89.635727 529.070557,89.378998 544.280151,104.353935 
	C583.226562,142.699448 621.953186,181.268005 660.786804,219.728149 
	C677.480286,236.261124 694.228516,252.738876 710.925232,269.268646 
	C712.194458,270.525146 713.905518,271.478851 714.441101,274.142242 
	C710.130127,274.142242 705.920715,274.444519 701.767578,274.089142 
	C685.104370,272.663361 668.935974,268.912170 653.157593,263.378967 
	C647.054199,261.238647 641.934204,257.828979 637.340576,253.251587 
	C600.630371,216.670670 563.822021,180.188202 527.037659,143.681732 
	C525.393494,142.049973 523.690918,140.477127 521.351868,138.242874 
	C442.299408,215.307343 363.420197,292.202972 284.584961,369.055695 
	C286.751923,372.806366 289.577423,374.939941 292.045868,377.361603 
	C366.386963,450.295135 440.755157,523.201050 515.118652,596.111694 
	C520.704407,601.588318 520.664612,601.549988 526.364746,596.099731 
	C575.739807,548.888367 625.214050,501.784393 675.442261,455.474670 
	C712.190735,421.593048 748.680786,387.430359 785.149719,353.247528 
	C788.608398,350.005707 790.874207,349.904388 794.249695,353.134277 
	C805.515015,363.913818 805.005920,381.868988 792.783203,393.695007 
	C771.468079,414.318237 750.088623,434.875031 728.768799,455.493408 
	C689.961914,493.023499 651.210449,530.610901 612.374268,568.110596 
	C588.643188,591.025085 564.835144,613.860352 540.986938,636.652954 
	C528.849060,648.253601 510.662720,648.317993 499.053314,637.028687 
	C429.167847,569.070312 359.276703,501.117767 289.387329,433.163391 
	C275.409454,419.572540 261.414001,405.999725 247.457733,392.386719 
	C234.348221,379.599579 234.178726,361.765289 247.204590,349.043610 
	C306.808228,290.831909 366.459747,232.669327 426.096863,174.491959 
	C434.684753,166.114243 443.287811,157.752106 452.135742,149.134674 
z"/>
<path fill="#ffffff" opacity="1.000000" stroke="none" 
	d="
M574.318481,411.853729 
	C555.575012,405.795532 537.394958,399.197601 518.804382,394.095428 
	C472.227936,381.312561 426.860535,385.249451 383.000061,405.698700 
	C381.314026,406.484802 379.728607,408.063934 377.453369,407.313599 
	C377.330444,404.917084 379.175201,403.710602 380.383820,402.286499 
	C411.234741,365.933197 450.096313,343.428284 497.230957,335.992462 
	C526.921204,331.308624 555.927917,335.593536 584.282776,345.061829 
	C609.375244,353.440796 634.501343,361.746674 660.678589,366.169830 
	C696.834473,372.279083 731.602661,368.066101 764.683350,351.783112 
	C765.668213,351.298309 766.543030,350.257172 767.887390,350.988922 
	C768.828369,352.551544 767.421082,353.449951 766.758240,354.449066 
	C745.616089,386.317230 715.666870,405.812622 679.369995,416.145477 
	C647.408203,425.244232 615.539795,423.494049 583.837830,414.522827 
	C580.795410,413.661804 577.742920,412.836670 574.318481,411.853729 
z"/>
<path fill="#ffffff" opacity="1.000000" stroke="none" 
	d="
M488.399658,294.362061 
	C512.132507,278.428986 537.580383,267.755524 565.692505,264.127380 
	C588.087524,261.237061 610.275940,262.921722 631.973877,269.101105 
	C655.015747,275.663177 677.721191,283.468201 701.500977,287.171967 
	C736.908997,292.686829 771.192932,289.788086 803.638672,273.395142 
	C811.397217,269.475189 818.429993,264.401672 825.449280,259.315277 
	C826.733582,258.384674 827.674377,256.781738 829.940857,256.856323 
	C829.658020,261.144714 827.756897,264.901733 825.939819,268.444885 
	C804.145081,310.942200 770.709351,337.741455 722.554504,344.389496 
	C694.424255,348.273041 667.250549,342.965973 640.228455,335.844635 
	C621.043030,330.788544 602.641113,323.322052 583.581543,317.903168 
	C537.433899,304.782745 493.039825,308.089111 450.831116,332.010010 
	C450.400513,332.254028 449.948822,332.501160 449.475372,332.613525 
	C449.208954,332.676758 448.877625,332.466461 447.613525,332.102051 
	C459.467438,317.373505 472.865997,305.010315 488.399658,294.362061 
z"/>
<path fill="#ffffff" opacity="1.000000" stroke="none" 
	d="
M218.516724,769.461914 
	C209.913177,759.283630 201.540298,749.374268 192.533035,738.714172 
	C192.400299,741.244507 192.234924,742.968689 192.231415,744.693176 
	C192.206009,757.186401 192.115417,769.680908 192.268539,782.172180 
	C192.315811,786.029541 190.982285,787.376038 187.061493,787.441833 
	C171.075531,787.710327 171.051453,787.821350 171.038696,771.989746 
	C171.022461,751.833984 171.149689,731.677551 170.993759,711.523071 
	C170.956635,706.725281 172.002029,704.889709 177.490875,704.231323 
	C186.320709,703.172302 192.137009,705.856689 197.516144,712.781555 
	C206.805634,724.740417 216.934967,736.047302 226.728149,747.613953 
	C227.987518,749.101379 229.343567,750.507019 230.728928,752.032043 
	C232.399628,750.273193 231.793900,748.527649 231.802216,746.968750 
	C231.867889,734.642395 232.017242,722.312317 231.772995,709.990662 
	C231.684692,705.535522 233.467377,703.996765 237.593506,704.128540 
	C241.254211,704.245483 244.920914,704.165894 248.584793,704.195251 
	C251.359680,704.217529 252.727432,705.283325 252.720688,708.415833 
	C252.668106,732.882996 252.724045,757.350769 252.858826,781.817688 
	C252.880310,785.718811 251.625656,787.081116 247.458786,787.526428 
	C238.000732,788.537109 230.616028,786.290405 225.556152,777.691711 
	C223.812531,774.728638 221.046417,772.367188 218.516724,769.461914 
z"/>
<path fill="#ffffff" opacity="1.000000" stroke="none" 
	d="
M729.675720,718.009277 
	C729.671387,704.073669 729.672058,704.003052 743.160400,704.130859 
	C753.485596,704.228699 763.816650,703.744263 774.136108,704.654236 
	C794.344299,706.436401 806.508606,722.750610 801.214478,741.030029 
	C798.973145,748.768738 793.533203,753.677246 786.164490,757.570557 
	C792.340210,767.258057 798.269897,776.559631 804.821655,786.837036 
	C796.468872,787.695251 789.275330,787.590698 782.093872,786.981689 
	C780.564148,786.852051 779.891663,785.041260 779.088379,783.802979 
	C774.917603,777.373901 770.793884,770.914124 766.660278,764.460938 
	C764.859497,761.649719 754.551025,759.878052 752.223938,762.000366 
	C751.084290,763.039612 751.351318,764.456970 751.341675,765.757507 
	C751.299561,771.423401 751.176331,777.093506 751.345337,782.754272 
	C751.449402,786.238831 750.033142,787.314331 746.638733,787.426697 
	C729.677063,787.988464 729.682129,788.066528 729.682861,771.002319 
	C729.683655,753.503845 729.678955,736.005432 729.675720,718.009277 
M774.823059,742.481812 
	C779.472656,738.709534 781.041931,734.137512 779.498108,728.861450 
	C778.230774,724.530212 774.027954,721.617615 768.221191,721.370239 
	C763.901550,721.186340 759.568237,721.341736 755.241516,721.299255 
	C752.909851,721.276367 751.353577,722.015747 751.360596,724.671814 
	C751.375549,730.330261 751.357666,735.988892 751.355469,741.647400 
	C751.354797,743.395020 752.089844,744.653564 753.956482,744.594849 
	C760.711426,744.382446 767.630493,745.937256 774.823059,742.481812 
z"/>
<path fill="#ffffff" opacity="1.000000" stroke="none" 
	d="
M702.969238,787.365417 
	C686.493042,787.364746 670.509827,787.248108 654.530334,787.439880 
	C650.212341,787.491699 648.701111,786.114807 648.732056,781.719849 
	C648.899841,757.914795 648.932373,734.106934 648.729919,710.302490 
	C648.690063,705.622559 650.508911,703.996155 654.801758,704.176819 
	C672.105469,704.905029 689.408569,704.481812 706.710449,704.096008 
	C710.058960,704.021362 711.444885,705.356689 711.375305,708.840271 
	C711.078064,723.728760 713.106934,721.088257 699.563599,721.280273 
	C691.574280,721.393555 683.578918,721.441833 675.592590,721.252747 
	C671.878784,721.164917 670.118591,722.107605 670.253357,726.251160 
	C670.641479,738.189636 668.735229,736.489624 680.609314,736.594604 
	C687.434326,736.654968 694.264709,736.749817 701.084045,736.542542 
	C704.812195,736.429321 705.983521,737.970703 706.118835,741.521423 
	C706.562317,753.162354 706.660828,753.155151 695.231079,753.160706 
	C688.405579,753.164062 681.578735,753.262695 674.755127,753.154114 
	C671.614441,753.104187 670.224976,754.200439 670.311951,757.506470 
	C670.730164,773.401062 667.879333,770.425232 682.788696,770.695801 
	C691.109863,770.846863 699.443115,770.936951 707.756897,770.649475 
	C712.251038,770.494080 713.873352,772.230103 713.317810,776.479919 
	C713.275024,776.807312 713.315063,777.145142 713.311096,777.478027 
	C713.180115,788.544373 714.610413,787.253113 702.969238,787.365417 
z"/>
<path fill="#ffffff" opacity="1.000000" stroke="none" 
	d="
M853.783020,702.754272 
	C861.716064,703.611206 869.031982,704.966919 875.878235,708.314880 
	C878.662598,709.676514 879.600891,711.276489 878.069946,714.194946 
	C876.219360,717.722900 875.467651,722.558899 872.633179,724.644531 
	C869.459167,726.979980 865.933960,722.415894 862.321106,721.519836 
	C856.478333,720.070740 850.716064,718.557739 844.647095,720.309570 
	C841.020447,721.356384 837.937683,723.192566 837.589417,727.121216 
	C837.226685,731.212402 840.202515,733.470520 843.759277,734.557495 
	C849.002258,736.159729 854.358704,737.386353 859.634949,738.885254 
	C863.638550,740.022400 867.576721,741.359802 871.177246,743.536499 
	C885.222107,752.027344 886.688721,770.576477 873.948608,781.003418 
	C864.889404,788.417603 853.986145,789.774414 842.817566,789.138184 
	C833.944763,788.632751 825.462036,786.258728 817.530090,782.063293 
	C814.258972,780.333069 813.545593,778.431396 815.266113,774.881348 
	C820.425293,764.235474 820.317322,764.070984 830.819580,768.821350 
	C837.746399,771.954468 844.958313,772.467224 852.322388,771.639038 
	C856.216492,771.201111 859.517944,769.267517 860.199036,765.113953 
	C860.873779,760.998840 857.997559,758.793152 854.611572,757.238953 
	C849.270752,754.787354 843.474121,753.896057 837.858521,752.397888 
	C833.645569,751.273987 829.608765,749.779907 825.898560,747.490967 
	C812.671570,739.331238 811.463379,721.531738 823.365662,711.468384 
	C832.080139,704.100281 842.448547,702.612549 853.783020,702.754272 
z"/>
<path fill="#ffffff" opacity="1.000000" stroke="none" 
	d="
M429.977051,721.297363 
	C421.655975,721.299133 413.828552,721.400330 406.005524,721.258118 
	C402.592407,721.196106 401.213318,722.443542 401.295776,725.921143 
	C401.663452,741.426758 399.140564,738.474609 413.666595,738.750549 
	C419.825195,738.867554 425.990417,738.906311 432.146973,738.752930 
	C435.676788,738.664978 437.328857,739.804749 437.258881,743.595703 
	C436.989807,758.170959 438.760284,755.134216 425.892761,755.381897 
	C419.401550,755.506836 412.899414,755.578613 406.414734,755.337402 
	C402.409485,755.188416 401.167786,756.796936 401.274261,760.621887 
	C401.473450,767.775757 401.168030,774.943909 401.374786,782.097351 
	C401.483704,785.865967 400.395782,787.674316 396.330872,787.410522 
	C392.351105,787.152283 388.335876,787.198181 384.348175,787.377197 
	C380.800842,787.536438 379.735046,785.921875 379.743622,782.595886 
	C379.807251,757.953613 379.798126,733.310974 379.719116,708.668762 
	C379.708771,705.435974 380.938934,704.302551 384.156860,704.305786 
	C401.466064,704.323242 418.775421,704.156006 436.084839,704.107544 
	C442.695984,704.089050 442.923523,704.372681 442.906891,710.746338 
	C442.873413,723.594604 443.358215,721.039917 429.977051,721.297363 
z"/>
<path fill="#ffffff" opacity="1.000000" stroke="none" 
	d="
M636.223389,716.821716 
	C636.362793,720.327209 634.793945,721.371521 631.914490,721.323975 
	C626.252686,721.230469 620.576965,721.531799 614.928284,721.246704 
	C610.550964,721.025818 609.109741,722.637085 609.153015,726.993408 
	C609.331909,744.981445 609.063354,762.974670 609.327454,780.960571 
	C609.401855,786.030273 607.814636,787.951843 602.765015,787.434692 
	C599.467712,787.096924 596.081909,787.094971 592.783386,787.422546 
	C587.940063,787.903503 586.856812,785.604797 586.892151,781.275757 
	C587.035950,763.620300 586.932434,745.962952 586.933594,728.306274 
	C586.934082,721.334534 586.950256,721.328247 580.170959,721.315430 
	C575.173767,721.306030 570.169861,721.156433 565.181641,721.368652 
	C561.395996,721.529724 559.709412,720.275269 559.829895,716.263672 
	C560.227600,703.024475 557.989075,704.660950 571.516785,704.541626 
	C590.334045,704.375671 609.151550,704.227661 627.969238,704.121826 
	C636.217712,704.075439 636.218506,704.131470 636.234009,712.351318 
	C636.236572,713.683960 636.232483,715.016541 636.223389,716.821716 
z"/>
<path fill="#ffffff" opacity="1.000000" stroke="none" 
	d="
M510.273651,704.123657 
	C526.244141,704.014587 526.243164,704.014587 526.245483,719.593445 
	C526.247803,734.756775 526.409912,749.922668 526.159363,765.081787 
	C526.084961,769.579956 527.635742,770.824280 531.915894,770.713013 
	C541.740601,770.457520 551.577942,770.721741 561.406372,770.556030 
	C565.041016,770.494812 566.436523,771.746338 566.361328,775.466980 
	C566.079834,789.392700 568.032410,787.234802 554.952332,787.339294 
	C540.123230,787.457825 525.289856,787.205322 510.463959,787.453979 
	C505.791931,787.532288 504.545990,785.891541 504.580505,781.405396 
	C504.763672,757.578735 504.734131,733.749512 504.603058,709.922180 
	C504.581665,706.034485 505.509796,703.769287 510.273651,704.123657 
z"/>
<path fill="#ffffff" opacity="1.000000" stroke="none" 
	d="
M313.214325,779.069519 
	C303.617889,792.623657 277.023651,791.992188 265.850952,781.536133 
	C263.785889,779.603516 263.283722,777.773682 265.315094,775.561218 
	C265.988525,774.827942 266.524811,773.970581 267.159363,773.199219 
	C269.060028,770.888855 270.550049,767.734985 272.999908,766.512268 
	C275.946411,765.041748 277.481384,769.113403 279.899292,770.369141 
	C289.559448,775.385986 297.464325,770.942871 297.609436,759.866577 
	C297.823303,743.544006 297.668121,727.216614 297.684509,710.891296 
	C297.691010,704.439331 297.856476,704.290649 304.425110,704.110962 
	C318.399658,703.728577 318.414062,703.728638 318.412292,717.803406 
	C318.410431,732.789673 318.472778,747.776917 318.309937,762.761597 
	C318.247620,768.496155 316.745026,773.949036 313.214325,779.069519 
z"/>
<path fill="#ffffff" opacity="1.000000" stroke="none" 
	d="
M459.766785,783.775391 
	C459.727112,758.987427 459.821899,734.678528 459.604248,710.372375 
	C459.561707,705.621643 460.955353,703.997559 465.798126,704.004639 
	C481.310425,704.027283 481.308624,703.859375 481.303802,719.517578 
	C481.297455,740.162720 481.178314,760.809082 481.381012,781.452148 
	C481.425751,786.005127 480.087067,787.827515 475.447113,787.429993 
	C471.644684,787.104370 467.793976,787.334534 463.964691,787.332397 
	C461.808228,787.331177 459.895935,787.027039 459.766785,783.775391 
z"/>
</svg>